<svg width="100" height="100" viewBox="0 0 100 100" fill="none" xmlns="http://www.w3.org/2000/svg">
<rect width="100" height="100" fill="white"/>
<path d="M92.2648 51.4604C102.578 41.0801 102.578 24.1904 92.2648 13.8101C87.2633 8.77347 80.6092 6 73.5321 6C73.53 6 73.53 6 73.53 6C66.4529 6 59.7967 8.77347 54.7931 13.8101L50 18.6331L45.2069 13.8101C40.2033 8.77347 33.5492 6 26.47 6C19.3928 6 12.7387 8.77347 7.73515 13.8101C-2.57838 24.1904 -2.57838 41.0801 7.73515 51.4604L50 94L92.2648 51.4604ZM10.6985 16.7267C14.9123 12.4846 20.5161 10.1488 26.47 10.1488C32.4259 10.1488 38.0297 12.4846 42.2435 16.7267L50 24.5347L57.7565 16.7267C61.9703 12.4846 67.5741 10.1488 73.53 10.1488C79.486 10.1488 85.0877 12.4846 89.3015 16.7267C98.0187 25.4993 98.0187 39.7712 89.3015 48.5438L50 88.1004L10.6985 48.5438C1.98133 39.7712 1.98133 25.4972 10.6985 16.7267Z" fill="black"/>
</svg>
