<svg width="100" height="100" viewBox="0 0 100 100" fill="none" xmlns="http://www.w3.org/2000/svg">
<rect width="100" height="100" fill="white"/>
<path d="M79.4492 27.3726L67.7216 27.2413V19.5154C67.7216 9.30547 59.458 1 49.3021 1C39.1472 1 30.8857 9.30652 30.8857 19.5154V26.8277L19.5832 26.7006C19.155 26.7101 18.7613 26.8602 18.4647 27.1563C18.1671 27.4524 18 27.8555 18 28.2754V98.4252C18 99.2955 18.7007 100 19.5665 100H79.4335C80.2993 100 81 99.2955 81 98.4252V28.9484C80.999 28.0854 80.3076 27.3831 79.4492 27.3726ZM34.0186 19.5154C34.0186 11.043 40.8745 4.14959 49.3021 4.14959C57.7307 4.14959 64.5887 11.043 64.5887 19.5154V27.2056L34.0186 26.8623V19.5154V19.5154ZM77.866 96.8504H21.1319V29.8681L30.8857 29.9773V34.6943C28.725 35.4051 27.1481 37.4271 27.1481 39.8344C27.1481 42.8297 29.572 45.2654 32.5503 45.2654C35.5287 45.2654 37.9526 42.8286 37.9526 39.8344C37.9526 37.3547 36.2806 35.2801 34.0176 34.6324V30.013L64.5876 30.3563V34.6639C62.3758 35.3442 60.7519 37.3914 60.7519 39.8344C60.7519 42.8297 63.1757 45.2654 66.1541 45.2654C69.1325 45.2654 71.5563 42.8286 71.5563 39.8344C71.5563 37.3914 69.9324 35.3431 67.7206 34.6639V30.392L77.865 30.5064V96.8504H77.866ZM32.5503 37.5531C33.8014 37.5531 34.8196 38.5767 34.8196 39.8344C34.8196 41.0922 33.8014 42.1158 32.5503 42.1158C31.2993 42.1158 30.2811 41.0922 30.2811 39.8344C30.2811 38.5767 31.2993 37.5531 32.5503 37.5531ZM66.1551 37.5531C67.4062 37.5531 68.4244 38.5767 68.4244 39.8344C68.4244 41.0922 67.4062 42.1158 66.1551 42.1158C64.9041 42.1158 63.8859 41.0922 63.8859 39.8344C63.8859 38.5767 64.9041 37.5531 66.1551 37.5531Z" fill="black"/>
</svg>
